<svg width="25" height="24" viewBox="0 0 25 24" fill="none" xmlns="http://www.w3.org/2000/svg">
<g clip-path="url(#clip0_1_15)">
<path d="M17.0984 8.16496H7.90162C3.53781 8.16496 0 11.7087 0 16.0817C0 20.4547 3.53781 24 7.90162 24H17.0984C21.4622 24 25 20.4547 25 16.0817C25 11.7087 21.4622 8.16496 17.0984 8.16496ZM16.9261 23.0921C13.0637 23.0921 9.93201 19.9538 9.93201 16.0833C9.93201 12.2127 13.0637 9.0744 16.9261 9.0744C20.7885 9.0744 23.9202 12.2127 23.9202 16.0833C23.9202 19.9538 20.7885 23.0921 16.9261 23.0921Z" fill="#34C759"/>
<path d="M16.0047 4.68443C16.0047 5.68173 16.2632 6.61738 16.7169 7.42817C14.5112 7.04744 12.833 5.12065 12.833 2.80081C12.833 2.50948 12.8592 2.22431 12.9115 1.94686C13.3422 1.81584 13.8005 1.74493 14.2743 1.74493C15.0895 1.74493 15.8571 1.95457 16.5246 2.32142C16.1909 3.03973 16.0047 3.83973 16.0047 4.68443Z" fill="#34C759"/>
<path d="M22.2067 2.80077C22.2067 4.92023 20.8069 6.71137 18.8827 7.29557C18.552 7.39576 18.2074 7.46204 17.849 7.48516H17.8475C17.2676 6.70366 16.9246 5.7341 16.9246 4.68439C16.9246 4.03391 17.0569 3.41426 17.2953 2.8501C17.9675 1.26243 19.4856 0.123314 21.2838 0C21.8637 0.781503 22.2067 1.75106 22.2067 2.80077Z" fill="#34C759"/>
</g>
<defs>
<clipPath id="clip0_1_15">
<rect width="25" height="24" fill="white"/>
</clipPath>
</defs>
</svg>
